<svg xmlns="http://www.w3.org/2000/svg" xmlns:xlink="http://www.w3.org/1999/xlink" viewBox="0 0 14 14"><defs><path id="a" d="M0 0h14v14H0z"/></defs><clipPath id="b"><use xlink:href="#a" overflow="visible"/></clipPath><g clip-path="url(#b)"><path d="M4.2 5.6c-.3 0-.5-.2-.5-.5s.2-.5.5-.5h9.3c.3 0 .5.2.5.5s-.2.5-.5.5H4.2zm0-3.8c-.3 0-.5-.2-.5-.5s.2-.5.5-.5h9.3c.3 0 .5.2.5.5s-.2.5-.5.5H4.2zM1.3 0c.3 0 .7.1.9.4.5.5.5 1.3 0 1.8-.3.3-.6.4-.9.4-.3 0-.7-.1-.9-.4C.1 2 0 1.6 0 1.3 0 1 .1.6.4.4.6.1.9 0 1.3 0m.4.8C1.6.7 1.4.6 1.3.6 1.1.6 1 .7.9.8c-.2.2-.3.3-.3.5s.1.3.2.5c.1.1.3.2.5.2s.3-.1.5-.2c.1-.1.2-.3.2-.5-.1-.2-.2-.3-.3-.5m2.5 12.4c-.3 0-.5-.2-.5-.5s.2-.5.5-.5h9.3c.3 0 .5.2.5.5s-.2.5-.5.5H4.2zm-2.9-1.8c.3 0 .7.1.9.4.2.2.4.6.4.9 0 .3-.1.7-.4.9-.3.3-.6.4-.9.4-.3 0-.7-.1-.9-.4-.3-.2-.4-.6-.4-.9 0-.3.1-.7.4-.9.2-.3.5-.4.9-.4m.4.8c-.1-.1-.3-.2-.4-.2-.2 0-.3.1-.4.2-.2.3-.2.7 0 .9.1.1.3.2.4.2.2 0 .3-.1.5-.2.2-.2.2-.6-.1-.9m2.5-2.8c-.3 0-.5-.2-.5-.5s.2-.5.5-.5h9.3c.3 0 .5.3.5.5 0 .3-.2.5-.5.5H4.2zM1.3 7.6c.3 0 .7.1.9.4.2.3.4.6.4.9 0 .3-.1.7-.4.9-.2.2-.6.4-.9.4-.3 0-.7-.1-.9-.4-.5-.5-.5-1.3 0-1.8.2-.3.5-.4.9-.4m.4.8c-.1-.1-.3-.2-.4-.2-.2 0-.3.1-.4.2-.2.2-.3.3-.3.5s.1.3.2.5c.1.1.3.2.4.2.2 0 .3-.1.5-.2.1-.1.2-.3.2-.5s-.1-.3-.2-.5m-.4-4.6c.3 0 .7.1.9.4.5.5.5 1.3 0 1.8-.3.3-.6.4-.9.4-.4 0-.7-.1-.9-.4-.5-.5-.5-1.3 0-1.8.2-.3.5-.4.9-.4m.4.8c-.1-.1-.3-.2-.4-.2-.2 0-.3.1-.4.2-.2.2-.3.3-.3.5s.1.3.2.5c.1.1.3.2.4.2.2 0 .3-.1.5-.2.1-.1.2-.3.2-.5s-.1-.3-.2-.5z" fill-rule="evenodd" clip-rule="evenodd" fill="#3a8e7c"/></g></svg>