<?xml version="1.0" encoding="utf-8"?>
<!-- Generator: Adobe Illustrator 21.0.0, SVG Export Plug-In . SVG Version: 6.00 Build 0)  -->
<svg version="1.1" id="图层_1" xmlns="http://www.w3.org/2000/svg" xmlns:xlink="http://www.w3.org/1999/xlink" x="0px" y="0px"
	 viewBox="0 0 16 16" style="enable-background:new 0 0 16 16;" xml:space="preserve">
<style type="text/css">
	.st0{fill:#040000;}
	.st1{fill:#3A8E7C;}
	.st2{fill:#221714;}
	.st3{fill-rule:evenodd;clip-rule:evenodd;fill:#040000;}
</style>
<g>
	<path class="st1" d="M4.2,16h7.6c1.4,0,2.5-1.3,2.5-3V4.5h1.1c0.3,0,0.6-0.3,0.6-0.6c0-0.3-0.3-0.6-0.6-0.6h-4.2l0-0.2
		c0-1.7-1.4-3-3.1-3S5.1,1.3,5,3l0,0.2H0.6C0.3,3.2,0,3.5,0,3.8c0,0.3,0.3,0.6,0.6,0.6h1.2V13C1.8,14.7,2.9,16,4.2,16z M6.2,3
		c0.1-1,0.9-1.8,2-1.8c1,0,1.9,0.8,2,1.8l0,0.2h-4L6.2,3z M2.9,4.5h10.3V13c0,1.1-0.7,1.9-1.3,1.9H4l0,0C3.5,14.7,2.9,14,2.9,13V4.5
		z"/>
	<path class="st1" d="M5.6,12.8c0.4,0,0.7-0.4,0.7-0.8V7.4c0-0.5-0.3-0.8-0.7-0.8S4.9,6.9,4.9,7.4V12C4.9,12.5,5.2,12.8,5.6,12.8z
		 M8.1,12.8c0.4,0,0.7-0.4,0.7-0.8V7.4c0-0.5-0.3-0.8-0.7-0.8c-0.4,0-0.7,0.4-0.7,0.8V12C7.4,12.5,7.7,12.8,8.1,12.8z M10.6,12.8
		c0.4,0,0.7-0.4,0.7-0.8V7.4c0-0.5-0.3-0.8-0.7-0.8c-0.4,0-0.7,0.4-0.7,0.8V12C9.9,12.5,10.2,12.8,10.6,12.8z"/>
</g>
</svg>
