<?xml version="1.0" encoding="utf-8"?>
<!-- Generator: Adobe Illustrator 21.0.0, SVG Export Plug-In . SVG Version: 6.00 Build 0)  -->
<svg version="1.1" id="图层_1" xmlns="http://www.w3.org/2000/svg" xmlns:xlink="http://www.w3.org/1999/xlink" x="0px" y="0px"
	 viewBox="0 0 500 500" style="enable-background:new 0 0 500 500;" xml:space="preserve">
	 <style type="text/css">
		.st0{fill:#3A8E7C;}
	</style>
<path class="st0" d="M187.4,46.9c0-8.6-7-15.6-15.6-15.6h-125c-1-0.1-2-0.1-3,0l-1.3,0.4l-1.6,0.5l-1.6,0.8l-1.2,0.6c-1.7,1.1-3.2,2.6-4.3,4.3
	c0,0-0.4,0.8-0.6,1.2c-0.6,1-1.1,2-1.3,3.1c0,0.5,0,0.9-0.4,1.3c-0.2,1.1-0.3,2.3-0.3,3.4v125c0,8.6,7,15.6,15.6,15.6
	s15.6-7,15.6-15.6V84.7l98.4,98.3c6.1,6.1,16,6.1,22.1,0c6.1-6.1,6.1-16,0-22.1L84.6,62.6h87.3C180.4,62.6,187.4,55.6,187.4,46.9z"
	/>
<path class="st0" d="M171.9,437.5H84.6l98.3-98.4c6.1-6.1,6.1-16,0-22.1c-6.1-6.1-16-6.1-22.1,0l0,0l-98.3,98.4v-87.3c0-8.6-7-15.6-15.6-15.6
	s-15.6,7-15.6,15.6v125c-0.1,1-0.1,2,0,3c0,0.5,0,0.9,0.4,1.3c0.2,1.1,0.7,2.2,1.3,3.1c0,0,0,0.8,0.6,1.2c1.1,1.7,2.6,3.2,4.3,4.3
	l1.2,0.6l1.6,0.8l1.6,0.5l1.3,0.4c1.1,0.3,2.2,0.4,3.4,0.4h125c8.6,0,15.6-7,15.6-15.6S180.5,437.5,171.9,437.5z"/>
<path class="st0" d="M453.1,312.5c-8.6,0-15.6,7-15.6,15.6v87.3l-98.4-98.3c-6.6-5.6-16.4-4.8-22,1.7c-5,5.8-5,14.5,0,20.3l98.3,98.4h-87.3
	c-8.6,0-15.6,7-15.6,15.6s7,15.6,15.6,15.6h125c1,0.1,2,0.1,3,0l1.3-0.4l1.6-0.5l1.6-0.8l1.2-0.6c1.7-1.1,3.2-2.6,4.3-4.3
	c0,0,0.4-0.8,0.6-1.2c0.6-1,1.1-2,1.3-3.1c0-0.5,0-0.9,0.4-1.3c0.2-1.1,0.3-2.3,0.3-3.4v-125C468.7,319.5,461.7,312.5,453.1,312.5z"
	/>
<path class="st0" d="M468,42.6c-0.2-1.1-0.7-2.2-1.3-3.1c0,0,0-0.8-0.6-1.2c-1.1-1.7-2.6-3.2-4.3-4.3l-0.9-0.6l-1.6-0.8l-1.6-0.5l-1.6-0.8
	c-1-0.1-2-0.1-3,0h-125c-8.6,0-15.6,7-15.6,15.6s7,15.6,15.6,15.6h87.3l-98.3,98.4c-6.1,6.1-6.1,16,0,22.1c6.1,6.1,16,6.1,22.1,0
	l0,0l98.3-98.4v87.3c0,8.6,7,15.6,15.6,15.6s15.6-7,15.6-15.6v-125c0.1-1,0.1-2,0-3C468.3,43.4,468.2,42.9,468,42.6L468,42.6z"/>
</svg>
