<svg width="24" height="24" viewBox="0 0 24 24" fill="none" xmlns="http://www.w3.org/2000/svg">
<g id="icon/&#233;&#157;&#162;/&#232;&#173;&#166;&#229;&#145;&#138;">
<path id="Outlined" fill-rule="evenodd" clip-rule="evenodd" d="M12 22C17.5228 22 22 17.5228 22 12C22 6.47715 17.5228 2 12 2C6.47715 2 2 6.47715 2 12C2 17.5228 6.47715 22 12 22ZM14.502 7.742C13.942 7.238 13.214 7 12.318 7C11.282 7 10.47 7.294 9.882 7.896C9.294 8.484 9 9.282 9 10.304H10.47C10.47 9.688 10.596 9.212 10.848 8.876C11.128 8.47 11.59 8.274 12.22 8.274C12.724 8.274 13.13 8.414 13.41 8.694C13.676 8.974 13.816 9.352 13.816 9.842C13.816 10.206 13.676 10.542 13.424 10.864L13.186 11.13C12.318 11.9 11.786 12.474 11.604 12.866C11.408 13.23 11.324 13.678 11.324 14.196V14.434H12.822V14.196C12.822 13.86 12.892 13.552 13.046 13.272C13.172 13.02 13.368 12.768 13.634 12.544C14.292 11.97 14.684 11.606 14.81 11.452C15.16 11.004 15.342 10.43 15.342 9.744C15.342 8.904 15.062 8.232 14.502 7.742ZM12.808 15.47C12.612 15.274 12.36 15.19 12.066 15.19C11.786 15.19 11.534 15.274 11.338 15.47C11.142 15.652 11.044 15.89 11.044 16.184C11.044 16.464 11.142 16.702 11.338 16.898C11.534 17.094 11.786 17.192 12.066 17.192C12.346 17.192 12.598 17.094 12.794 16.912C12.99 16.716 13.102 16.478 13.102 16.184C13.102 15.89 13.004 15.652 12.808 15.47Z" fill="currentColor"/>
</g>
</svg>
