<svg xmlns="http://www.w3.org/2000/svg" width="16.13" height="15.804" viewBox="0 0 16.13 15.804"><defs><style>.a{fill:#12604f;}</style></defs><g transform="translate(-7.654 -8.338)"><path class="a" d="M15.72,58.624a1.769,1.769,0,0,1-1.142-.406l-6.38-3.5-.034-.03a1.477,1.477,0,0,1-.172-2.055l.623.507a.674.674,0,0,0,.056.921l6.373,3.492.034.031a1,1,0,0,0,1.284,0l.034-.031,6.373-3.49a.674.674,0,0,0,.056-.921l.623-.507a1.475,1.475,0,0,1-.172,2.053l-.034.03-6.38,3.5A1.774,1.774,0,0,1,15.72,58.624Z" transform="translate(0 -37.935)"/><path class="a" d="M15.727,24.142a1.769,1.769,0,0,1-1.142-.406l-6.38-3.5-.034-.03A1.478,1.478,0,0,1,8,18.157l.623.507a.674.674,0,0,0,.056.921l6.373,3.49.034.031a1,1,0,0,0,1.284,0l.034-.031,6.373-3.49a.674.674,0,0,0,.056-.921l.623-.507a1.475,1.475,0,0,1-.172,2.053l-.034.03-6.38,3.5A1.765,1.765,0,0,1,15.727,24.142ZM23.016,12.09,16.638,8.677a1.391,1.391,0,0,0-1.821,0L8.439,12.09a1.074,1.074,0,0,0-.129,1.5,1.32,1.32,0,0,0,.129.138l1.008.551,5.37,2.942a1.391,1.391,0,0,0,1.821,0l5.37-2.942,1.008-.551a1.158,1.158,0,0,0,.129-.138A1.075,1.075,0,0,0,23.016,12.09Z" transform="translate(-0.008)"/></g></svg>