<?xml version="1.0" encoding="utf-8"?>
<!-- Generator: Adobe Illustrator 21.0.0, SVG Export Plug-In . SVG Version: 6.00 Build 0)  -->
<svg version="1.1" id="图层_1" xmlns="http://www.w3.org/2000/svg" xmlns:xlink="http://www.w3.org/1999/xlink" x="0px" y="0px"
	 viewBox="0 0 16 16" style="enable-background:new 0 0 16 16;" xml:space="preserve">
<style type="text/css">
	.st0{fill:#3A8E7C;}
	.st1{fill:#231815;}
	.st2{fill:#221714;}
	.st3{fill-rule:evenodd;clip-rule:evenodd;fill:#040000;}
</style>
<g>
	<path class="st0" d="M0.4,4.6l7.4,3.2c0.1,0,0.1,0,0.2,0c0.1,0,0.1,0,0.2,0l7.5-3.2C15.9,4.5,16,4.3,16,4c0-0.3-0.1-0.5-0.3-0.6
		L8.2,0C8.1,0,7.9,0,7.8,0L0.3,3.4C0.1,3.5,0,3.8,0,4C0,4.3,0.1,4.5,0.4,4.6z M2.1,4L8,1.3L13.9,4L8,6.6L2.1,4z"/>
	<path class="st0" d="M15.7,7.6c-0.1-0.1-0.3-0.1-0.4,0L8,10.9L0.7,7.6c-0.1-0.1-0.3-0.1-0.4,0C0.2,7.7,0.1,7.8,0,8
		c-0.1,0.3,0,0.7,0.3,0.8l7.5,3.3l0,0c0,0,0,0,0,0l0,0c0,0,0.1,0,0.1,0c0,0,0.1,0,0.1,0l0,0c0,0,0,0,0.1,0l7.5-3.3
		C15.9,8.7,16.1,8.3,16,8C15.9,7.8,15.8,7.7,15.7,7.6z"/>
	<path class="st0" d="M15.7,11.5c-0.1-0.1-0.3-0.1-0.4,0L8,14.7l-7.3-3.2c-0.1-0.1-0.3-0.1-0.4,0c-0.1,0.1-0.3,0.2-0.3,0.4
		c-0.1,0.3,0,0.7,0.3,0.8L7.8,16l0,0c0,0,0,0,0,0l0,0c0,0,0.1,0,0.1,0s0.1,0,0.1,0l0,0c0,0,0,0,0,0l7.5-3.3c0.3-0.1,0.4-0.5,0.3-0.8
		C15.9,11.7,15.8,11.5,15.7,11.5z"/>
</g>
</svg>
