;<svg
  xmlns="http://www.w3.org/2000/svg"
  width="20"
  height="20"
  viewBox="0 0 20 20"
>
  <path
    class="a"
    d="M146.333,134.667H143v-5A1.672,1.672,0,0,0,141.333,128H129.667A1.672,1.672,0,0,0,128,129.667v11.667A1.672,1.672,0,0,0,129.667,143h5v3.333A1.672,1.672,0,0,0,136.333,148h10A1.672,1.672,0,0,0,148,146.333v-10A1.672,1.672,0,0,0,146.333,134.667Zm-.417,11.667H136.75a.394.394,0,0,1-.417-.417v-4.583h-6.25a.394.394,0,0,1-.417-.417V130.083a.394.394,0,0,1,.417-.417h10.833a.394.394,0,0,1,.417.417v6.25h4.583a.394.394,0,0,1,.417.417v9.167A.448.448,0,0,1,145.917,146.333Z"
    transform="translate(-128 -128)"
  />
  <path
    class="a"
    d="M264.355,262.684v-5.849a.838.838,0,0,0-.836-.836h-6.684a.838.838,0,0,0-.836.836v6.684a.838.838,0,0,0,.836.836h5.849v4.178a.838.838,0,0,0,.836.835h5.013a.838.838,0,0,0,.835-.835V263.52a.838.838,0,0,0-.835-.836Z"
    transform="translate(-252.684 -252.684)"
  />
</svg>
