<?xml version="1.0" standalone="no"?>
<!DOCTYPE svg PUBLIC "-//W3C//DTD SVG 1.1//EN" "http://www.w3.org/Graphics/SVG/1.1/DTD/svg11.dtd">
<svg t="1598843227230" class="icon" viewBox="0 0 1024 1024" version="1.1" xmlns="http://www.w3.org/2000/svg" p-id="4188"
    xmlns:xlink="http://www.w3.org/1999/xlink" width="500" height="500">
    <defs>
        <style type="text/css">
            .st0{fill:#3A8E7C;}
        </style>
    </defs>
    <path class="st0" d="M960 672a32 32 0 0 0-32-32H672a32 32 0 0 0-6.24 0l-2.72 0.8-3.2 0.96-3.2 1.6-2.4 1.28a32 32 0 0 0-8.8 8.8s-0.8 1.6-1.28 2.4a18.88 18.88 0 0 0-2.72 6.4c0 0.96 0 1.76-0.8 2.72A32 32 0 0 0 640 672v256a32 32 0 0 0 64 0V749.28l201.44 201.28a32 32 0 0 0 45.28-45.28L749.28 704H928a32 32 0 0 0 32-32zM928 320H749.28L950.56 118.56a32 32 0 0 0-45.28-45.28L704 274.72V96a32 32 0 0 0-64 0v256a32 32 0 0 0 0 6.24c0 0.96 0 1.92 0.8 2.72a18.88 18.88 0 0 0 2.72 6.4s0 1.6 1.28 2.4a32 32 0 0 0 8.8 8.8l2.4 1.28 3.2 1.6 3.2 0.96 2.72 0.8A32 32 0 0 0 672 384h256a32 32 0 0 0 0-64zM352 64a32 32 0 0 0-32 32v178.72L118.56 73.44a32 32 0 0 0-45.12 45.12L274.72 320H96a32 32 0 0 0 0 64h256a32 32 0 0 0 6.24 0l2.72-0.8 3.2-0.96 3.2-1.6 2.4-1.28a32 32 0 0 0 8.8-8.8s0.8-1.6 1.28-2.4a18.88 18.88 0 0 0 2.72-6.4c0-0.96 0-1.76 0.8-2.72A32 32 0 0 0 384 352V96a32 32 0 0 0-32-32zM382.56 663.04a18.88 18.88 0 0 0-2.72-6.4s0-1.6-1.28-2.4a32 32 0 0 0-8.8-8.8l-1.76-1.28-3.2-1.6-3.2-0.96-3.36-1.6a32 32 0 0 0-6.24 0H96a32 32 0 0 0 0 64h178.72L73.44 905.44a32 32 0 1 0 45.28 45.28L320 749.28V928a32 32 0 0 0 64 0V672a32 32 0 0 0 0-6.24c-0.8-0.96-1.12-1.92-1.44-2.72z" p-id="4189"></path>
</svg>