<svg xmlns="http://www.w3.org/2000/svg" viewBox="0 0 14 14"><path d="M11.7 7.6c.9-1.1 1.5-2.1 1.5-3.2 0-1.8-1.5-3.2-3.3-3.2S6.6 2.7 6.6 4.4c0 1 .6 1.9 1.3 2.9l-.9.3-1.7-.5c.2-.4.3-.7.3-1.1 0-1-.8-1.8-1.8-1.8S2 5 2 6c0 .4.2.8.4 1.2L0 12.8l3.7-1.4 3.4 1.4 3.2-1.4 3.7 1.4-2.3-5.2zM9.9 2.9c.9 0 1.6.7 1.6 1.6S10.8 6 9.9 6C9 6 8.3 5.3 8.3 4.4S9 2.9 9.9 2.9zM3.8 5.1c.5 0 .9.4.9.9s-.4.9-.9.9c-.4 0-.8-.4-.8-.9s.4-.9.8-.9zm6.5 5.4l-3.1 1.4-3.3-1.4-2.5 1.1L2.7 8h.2l.9 1.2c.4-.6.7-1 1-1.5l2.2.7L8.4 8c.5.6 1 1.3 1.5 2.1.5-.7.9-1.3 1.4-1.9l1.4 3.6-2.4-1.3z" fill="#3a8e7c"/></svg>