<svg xmlns="http://www.w3.org/2000/svg" width="22.308" height="22.304"><defs><clipPath id="a"><path class="a" d="M0 0h22.308v22.304H0z"/></clipPath><style>.a{fill:#525252}</style></defs><g clip-path="url(#a)"><path class="a" d="M22.286 19.57v-1.353h-1.919l-.016-15.528-17.157.021V.01H1.915v2.7H-.002v1.352h1.917l.015 15.527 17.16-.021v2.7h1.28v-2.7zm-3.2-1.345l-15.881.02L3.19 4.067l15.881-.02.015 14.175zm-4.124-7.607c-.075-.211-.223-.553-.425-.553-.175 0-.4.291-.524.476-.671 1-1.318 2-1.941 3.031a.721.721 0 01-.922.265c-1.172-.579-1.616-1.156-2.761-1.736a.54.54 0 00-.8.213c-.671 1.081-1.369 2.162-2.041 3.243-.1.185-.223.5-.149.632s.4.211.6.211l4.756-.007 5.438-.006c.746 0 .847-.161.6-.845-.6-1.633-1.2-3.291-1.826-4.924zm-6.9-.914a1.381 1.381 0 001.4-1.4A1.421 1.421 0 008.14 6.91a1.4 1.4 0 00-.075 2.791zm0 0"/></g></svg>