<?xml version="1.0" encoding="utf-8"?>
<!-- Generator: Adobe Illustrator 21.0.0, SVG Export Plug-In . SVG Version: 6.00 Build 0)  -->
<svg version="1.1" id="图层_1" xmlns="http://www.w3.org/2000/svg" xmlns:xlink="http://www.w3.org/1999/xlink" x="0px" y="0px"
	 viewBox="0 0 16 16" style="enable-background:new 0 0 16 16;" xml:space="preserve">
<style type="text/css">
	.st0{fill:#3A8E7C;}
</style>
<g>
	<circle class="st0" cx="1.9" cy="1.9" r="1.9"/>
	<circle class="st0" cx="14.1" cy="1.9" r="1.9"/>
	<circle class="st0" cx="1.9" cy="14.1" r="1.9"/>
	<circle class="st0" cx="14.1" cy="14.1" r="1.9"/>
	<path class="st0" d="M5.3,1.3H4.8c-0.3,0-0.5,0.2-0.5,0.4s0.2,0.4,0.5,0.4h0.5c0.3,0,0.5-0.2,0.5-0.4S5.5,1.3,5.3,1.3z"/>
	<path class="st0" d="M7.2,1.3H6.7c-0.3,0-0.5,0.2-0.5,0.4s0.2,0.4,0.5,0.4h0.5c0.3,0,0.5-0.2,0.5-0.4S7.5,1.3,7.2,1.3z"/>
	<path class="st0" d="M11.2,1.3h-0.5c-0.3,0-0.5,0.2-0.5,0.4s0.2,0.4,0.5,0.4h0.5c0.3,0,0.5-0.2,0.5-0.4S11.5,1.3,11.2,1.3z"/>
	<path class="st0" d="M9.2,1.3H8.7c-0.3,0-0.5,0.2-0.5,0.4s0.2,0.4,0.5,0.4h0.5c0.3,0,0.5-0.2,0.5-0.4S9.5,1.3,9.2,1.3z"/>
	<path class="st0" d="M7.2,13.9l-0.5,0c-0.3,0-0.5,0.2-0.5,0.4c0,0.2,0.2,0.4,0.5,0.4l0.5,0c0.3,0,0.5-0.2,0.5-0.4
		C7.7,14,7.5,13.9,7.2,13.9z"/>
	<path class="st0" d="M9.2,13.9l-0.5,0c-0.3,0-0.5,0.2-0.5,0.4c0,0.2,0.2,0.4,0.5,0.4l0.5,0c0.3,0,0.5-0.2,0.5-0.4
		C9.7,14,9.5,13.9,9.2,13.9z"/>
	<path class="st0" d="M5.3,13.9l-0.5,0c-0.3,0-0.5,0.2-0.5,0.4c0,0.2,0.2,0.4,0.5,0.4l0.5,0h0c0.3,0,0.5-0.2,0.5-0.4
		C5.8,14,5.5,13.9,5.3,13.9z"/>
	<path class="st0" d="M11.2,13.9l-0.5,0c-0.3,0-0.5,0.2-0.5,0.4c0,0.2,0.2,0.4,0.5,0.4l0.5,0c0.3,0,0.5-0.2,0.5-0.4
		C11.7,14,11.5,13.9,11.2,13.9z"/>
	<path class="st0" d="M1.8,8.3c-0.2,0-0.4,0.2-0.4,0.5l0,0.5c0,0.3,0.2,0.5,0.4,0.5c0.2,0,0.4-0.2,0.4-0.5l0-0.5
		C2.2,8.5,2,8.3,1.8,8.3z"/>
	<path class="st0" d="M1.4,10.8l0,0.5c0,0.3,0.2,0.5,0.4,0.5c0.2,0,0.4-0.2,0.4-0.5l0-0.5c0-0.3-0.2-0.5-0.4-0.5
		C1.6,10.3,1.4,10.5,1.4,10.8z"/>
	<path class="st0" d="M1.8,6.3c-0.2,0-0.4,0.2-0.4,0.5l0,0.5c0,0.3,0.2,0.5,0.4,0.5s0.4-0.2,0.4-0.5l0-0.5C2.2,6.5,2,6.3,1.8,6.3z"
		/>
	<path class="st0" d="M1.8,4.3c-0.2,0-0.4,0.2-0.4,0.5l0,0.5c0,0.3,0.2,0.5,0.4,0.5c0.2,0,0.4-0.2,0.4-0.5l0-0.5
		C2.2,4.6,2,4.3,1.8,4.3z"/>
	<path class="st0" d="M14.5,5.2l0-0.5c0-0.3-0.2-0.5-0.4-0.5c-0.2,0-0.4,0.2-0.4,0.5l0,0.5c0,0.3,0.2,0.5,0.4,0.5
		C14.3,5.7,14.5,5.4,14.5,5.2z"/>
	<path class="st0" d="M14.1,7.7c0.2,0,0.4-0.2,0.4-0.5l0-0.5c0-0.3-0.2-0.5-0.4-0.5s-0.4,0.2-0.4,0.5l0,0.5
		C13.7,7.4,13.8,7.7,14.1,7.7z"/>
	<path class="st0" d="M14.1,11.6c0.2,0,0.4-0.2,0.4-0.5l0-0.5c0-0.3-0.2-0.5-0.4-0.5s-0.4,0.2-0.4,0.5l0,0.5
		C13.7,11.4,13.9,11.6,14.1,11.6z"/>
	<path class="st0" d="M14.1,9.6c0.2,0,0.4-0.2,0.4-0.5l0-0.5c0-0.3-0.2-0.5-0.4-0.5c-0.2,0-0.4,0.2-0.4,0.5l0,0.5
		C13.7,9.4,13.9,9.6,14.1,9.6z"/>
</g>
</svg>
