<svg width="16" height="16" viewBox="0 0 16 16" fill="none" xmlns="http://www.w3.org/2000/svg">
<g id="icon/&#233;&#157;&#162;/&#228;&#184;&#139;&#232;&#189;&#189;">
<path id="Outlined" fill-rule="evenodd" clip-rule="evenodd" d="M2.44436 1.33325H13.5555C14.1691 1.33325 14.6666 1.83071 14.6666 2.44436V13.5555C14.6666 14.1691 14.1691 14.6666 13.5555 14.6666H2.44436C1.83071 14.6666 1.33325 14.1691 1.33325 13.5555V2.44436C1.33325 1.83071 1.83071 1.33325 2.44436 1.33325ZM4.83325 4.66659C4.83325 4.39044 5.05711 4.16659 5.33325 4.16659H10.6666C10.9427 4.16659 11.1666 4.39044 11.1666 4.66659C11.1666 4.94273 10.9427 5.16659 10.6666 5.16659H5.33325C5.05711 5.16659 4.83325 4.94273 4.83325 4.66659ZM8.49992 6.66659C8.49992 6.39044 8.27606 6.16659 7.99992 6.16659C7.72378 6.16659 7.49992 6.39044 7.49992 6.66659V10.7928L5.68681 8.9797C5.49154 8.78444 5.17496 8.78444 4.9797 8.9797C4.78444 9.17496 4.78444 9.49154 4.9797 9.68681L7.64637 12.3535C7.84163 12.5487 8.15821 12.5487 8.35347 12.3535L11.0201 9.68681C11.2154 9.49154 11.2154 9.17496 11.0201 8.9797C10.8249 8.78444 10.5083 8.78444 10.313 8.9797L8.49992 10.7928V6.66659Z" fill="currentColor"/>
</g>
</svg>
