<svg width="24" height="24" viewBox="0 0 24 24" fill="none" xmlns="http://www.w3.org/2000/svg">
<g id="icon/&#233;&#157;&#162;/&#228;&#185;&#166;">
<g id="Outlined">
<path d="M6.5 1.75C4.42893 1.75 2.75 3.42893 2.75 5.5V18.5C2.75 20.5711 4.42893 22.25 6.5 22.25H20.5C20.9142 22.25 21.25 21.9142 21.25 21.5V3.5C21.25 3.08579 20.9142 2.75 20.5 2.75C20.0858 2.75 19.75 3.08579 19.75 3.5V20.75H6.5C5.25736 20.75 4.25 19.7426 4.25 18.5C4.25 17.2576 5.26293 16.25 6.5 16.25H17.4995C17.9137 16.25 18.25 15.9142 18.25 15.5V2.5C18.25 2.08579 17.9142 1.75 17.5 1.75H6.5Z" fill="currentColor"/>
<path d="M7 17.75C6.58579 17.75 6.25 18.0858 6.25 18.5C6.25 18.9142 6.58579 19.25 7 19.25H17C17.4142 19.25 17.75 18.9142 17.75 18.5C17.75 18.0858 17.4142 17.75 17 17.75H7Z" fill="currentColor"/>
</g>
</g>
</svg>
