<svg width="24" height="24" viewBox="0 0 24 24" fill="none" xmlns="http://www.w3.org/2000/svg">
<g id="icon/&#233;&#157;&#162;/&#228;&#185;&#166;&#229;&#136;&#138;">
<g id="Outlined">
<path fill-rule="evenodd" clip-rule="evenodd" d="M10.25 3C10.25 2.58579 10.5858 2.25 11 2.25H21C21.4142 2.25 21.75 2.58579 21.75 3V21C21.75 21.4142 21.4142 21.75 21 21.75H11C10.5858 21.75 10.25 21.4142 10.25 21V3ZM19.25 7.5C19.25 7.08579 18.9142 6.75 18.5 6.75C18.0858 6.75 17.75 7.08579 17.75 7.5V11C17.75 11.4142 18.0858 11.75 18.5 11.75C18.9142 11.75 19.25 11.4142 19.25 11V7.5ZM13.5 6.75C13.9142 6.75 14.25 7.08579 14.25 7.5V11C14.25 11.4142 13.9142 11.75 13.5 11.75C13.0858 11.75 12.75 11.4142 12.75 11V7.5C12.75 7.08579 13.0858 6.75 13.5 6.75Z" fill="currentColor"/>
<path d="M9 3.5L5 3L3 20.5L7.25 21L9 3.5Z" fill="currentColor"/>
</g>
</g>
</svg>
