<svg width="16" height="16" viewBox="0 0 16 16" fill="none" xmlns="http://www.w3.org/2000/svg">
<g id="icon/&#233;&#157;&#162;/&#229;&#174;&#161;&#230;&#160;&#184;&#228;&#184;&#173;">
<g id="Outlined">
<path fill-rule="evenodd" clip-rule="evenodd" d="M13.0402 1.72368C12.7902 1.47369 12.4511 1.33325 12.0976 1.33325H3.4331C3.07956 1.33325 2.74051 1.47369 2.49052 1.72368C2.24054 1.97366 2.1001 2.31272 2.1001 2.66625V13.3302C2.1001 13.6838 2.24054 14.0228 2.49052 14.2728C2.74051 14.5228 3.07956 14.6632 3.4331 14.6632H6.7656C7.11913 14.6632 7.45818 14.5228 7.70817 14.2728C7.95815 14.0228 8.09859 13.6838 8.09859 13.3302C8.10202 13.3015 8.10202 13.2724 8.09859 13.2436L8.01528 13.107C7.88403 12.8852 7.78421 12.6463 7.71869 12.3971C7.64761 12.1399 7.61174 11.8742 7.61205 11.6073C7.61074 11.1598 7.70958 10.7177 7.90133 10.3134C8.09308 9.90904 8.37288 9.55274 8.72022 9.27058C9.06756 8.98843 9.47364 8.78757 9.90869 8.68274C10.3437 8.57791 10.7967 8.57177 11.2345 8.66475C11.5314 8.7305 11.816 8.84299 12.0776 8.998H12.0976C12.4511 8.998 12.7902 8.85756 13.0402 8.60757C13.2902 8.35759 13.4306 8.01853 13.4306 7.665V2.66625C13.4306 2.31272 13.2902 1.97366 13.0402 1.72368ZM5.26597 8.998H7.93197C8.06454 8.998 8.19169 8.94533 8.28543 8.85159C8.37918 8.75784 8.43184 8.6307 8.43184 8.49812C8.43184 8.36555 8.37918 8.2384 8.28543 8.14466C8.19169 8.05091 8.06454 7.99825 7.93197 7.99825H5.26597C5.1334 7.99825 5.00625 8.05091 4.91251 8.14466C4.81876 8.2384 4.7661 8.36555 4.7661 8.49812C4.7661 8.6307 4.81876 8.75784 4.91251 8.85159C5.00625 8.94533 5.1334 8.998 5.26597 8.998ZM5.26597 5.99875H9.93147C10.064 5.99873 10.1912 5.94605 10.2849 5.85231C10.3786 5.75857 10.4313 5.63144 10.4313 5.49888C10.4313 5.36632 10.3786 5.23918 10.2849 5.14544C10.1912 5.0517 10.064 4.99902 9.93147 4.999H5.26597C5.13341 4.99902 5.00629 5.0517 4.91256 5.14544C4.81883 5.23918 4.76618 5.36632 4.76618 5.49888C4.76618 5.63144 4.81883 5.75857 4.91256 5.85231C5.00629 5.94605 5.13341 5.99873 5.26597 5.99875Z" fill="currentColor"/>
<path d="M13.3206 13.8534C13.3102 13.8375 13.2979 13.823 13.2839 13.8101L12.4741 12.997C12.7764 12.5956 12.939 12.1064 12.9374 11.604C12.9353 11.0935 12.7658 10.5978 12.455 10.1929C12.1441 9.78792 11.709 9.49615 11.2163 9.36228C10.7237 9.22842 10.2008 9.25985 9.7277 9.45175C9.25464 9.64366 8.8576 9.98545 8.59746 10.4247C8.33732 10.8639 8.22846 11.3764 8.28756 11.8835C8.34666 12.3905 8.57046 12.8642 8.92465 13.2319C9.27883 13.5995 9.74384 13.8408 10.2483 13.9188C10.7529 13.9967 11.269 13.9071 11.7177 13.6635L12.5741 14.5199C12.587 14.5339 12.6015 14.5462 12.6174 14.5566C12.705 14.6279 12.8145 14.6667 12.9274 14.6666C13.0598 14.6661 13.1867 14.6134 13.2806 14.5199C13.3696 14.4341 13.4231 14.3179 13.4305 14.1945C13.4379 14.071 13.3987 13.9493 13.3206 13.8534Z" fill="currentColor"/>
</g>
</g>
</svg>
