<svg width="24" height="24" viewBox="0 0 24 24" fill="none" xmlns="http://www.w3.org/2000/svg">
<g id="icon/&#233;&#157;&#162;/&#230;&#150;&#135;&#228;&#187;&#182;&#228;&#184;&#139;&#232;&#189;&#189;">
<path id="Outlined" fill-rule="evenodd" clip-rule="evenodd" d="M3.5 2.25C2.5335 2.25 1.75 3.0335 1.75 4V20C1.75 20.9665 2.53351 21.75 3.5 21.75H20.5C21.4665 21.75 22.25 20.9665 22.25 20V7C22.25 6.03349 21.4665 5.25 20.5 5.25H12.3513L10.0762 2.51986C9.93367 2.34887 9.72258 2.25 9.5 2.25H3.5ZM12.75 10C12.75 9.58579 12.4142 9.25 12 9.25C11.5858 9.25 11.25 9.58579 11.25 10V15.1941L9.53003 13.4761C9.23698 13.1833 8.7621 13.1836 8.46937 13.4767C8.17664 13.7697 8.17691 14.2446 8.46997 14.5373L11.4666 17.5306C11.6134 17.6773 11.8059 17.7504 11.9983 17.75L12 17.75C12.2285 17.75 12.4331 17.6479 12.5706 17.4867L15.53 14.5306C15.8231 14.2379 15.8234 13.763 15.5306 13.47C15.2379 13.1769 14.763 13.1766 14.47 13.4694L12.75 15.1874V10Z" fill="currentColor"/>
</g>
</svg>
